<svg width="51" height="68" viewBox="0 0 51 68" fill="none" xmlns="http://www.w3.org/2000/svg">
  <g clip-path="url(#clip0_1783_523)">
    <path
      d="M13.7499 35.0828C15.4715 35.0828 16.8646 33.6676 16.8646 31.9248V22.5197H21.1524V31.9248C21.1524 33.6704 22.5481 35.0828 24.2643 35.0828C25.9805 35.0828 27.379 33.6676 27.379 31.9248V3.83328C27.379 2.08772 25.9832 0.675293 24.2643 0.675293C22.5454 0.675293 21.1524 2.09047 21.1524 3.83328V16.2009H16.8646V9.91523C16.8646 8.16967 15.4688 6.75724 13.7499 6.75724C12.031 6.75724 10.6353 8.17242 10.6353 9.91523V31.9248C10.6353 33.6704 12.031 35.0828 13.7499 35.0828Z"
      fill="white"
    />
    <path
      d="M34.7865 40.4984C36.5082 40.4984 37.9012 39.0833 37.9012 37.3405V18.2521C37.9012 16.5065 36.5054 15.0941 34.7865 15.0941C33.0676 15.0941 31.6719 16.5093 31.6719 18.2521V37.3405C31.6719 39.086 33.0676 40.4984 34.7865 40.4984Z"
      fill="white"
    />
    <path
      d="M34.7865 13.9653C36.5082 13.9653 37.9012 12.5501 37.9012 10.8073V9.918C37.9012 8.17243 36.5054 6.76001 34.7865 6.76001C33.0676 6.76001 31.6719 8.17519 31.6719 9.918V10.8073C31.6719 12.5529 33.0676 13.9653 34.7865 13.9653Z"
      fill="white"
    />
    <path
      d="M48.4319 31.6523C46.8406 30.9915 45.0212 31.7597 44.3641 33.3731C44.3152 33.5025 39.2535 45.9527 35.8537 51.7401C33.3772 55.9581 28.9211 60.98 21.7603 60.98C17.6653 60.98 13.8202 59.3583 10.9309 56.4068C8.04435 53.4608 6.41506 49.5127 6.34174 45.2974C6.22226 38.15 6.34174 18.4697 6.34174 18.2742C6.35532 16.5286 4.97041 15.1052 3.24879 15.0969H3.22978C1.51902 15.0942 0.123261 16.4956 0.115115 18.2301C0.115115 18.4284 -0.00436697 38.183 0.115115 45.4021C0.212872 51.261 2.48574 56.751 6.51553 60.8616C10.5833 65.0108 15.9953 67.2987 21.763 67.2987C25.934 67.2987 29.7982 66.1093 33.2577 63.7635C36.3343 61.6738 39.0118 58.7168 41.2114 54.9724C44.8447 48.7886 49.92 36.3025 50.1318 35.7767C50.7889 34.1632 50.0259 32.3158 48.4346 31.6523"
      fill="white"
    />
  </g>
  <defs>
    <clipPath id="clip0_1783_523">
      <rect
        width="50.3045"
        height="66.6234"
        fill="white"
        transform="translate(0.0610352 0.675293)"
      />
    </clipPath>
  </defs>
</svg>
