<svg xmlns="http://www.w3.org/2000/svg" viewBox="0 0 511 266">
  <g fill="#FFF" fill-rule="evenodd">
    <path
      d="M67.96 124.652V87.135l17.342.001v37.516c0 6.959 5.641 12.6 12.6 12.6 6.958 0 12.6-5.641 12.6-12.6V12.6c0-6.958-5.642-12.6-12.6-12.6-6.959 0-12.6 5.642-12.6 12.6v49.336H67.96V36.851c0-6.959-5.642-12.6-12.6-12.6-6.96 0-12.6 5.641-12.6 12.6v87.801c0 6.959 5.64 12.6 12.6 12.6 6.958 0 12.6-5.641 12.6-12.6zm72.484 34.201c6.96 0 12.6-5.641 12.6-12.6V70.11c0-6.959-5.64-12.6-12.6-12.6-6.959 0-12.6 5.641-12.6 12.6v76.143c0 6.959 5.641 12.6 12.6 12.6m0-105.843c6.96 0 12.6-5.641 12.6-12.6v-3.559c0-6.959-5.64-12.6-12.6-12.6-6.959 0-12.6 5.641-12.6 12.6v3.559c0 6.959 5.641 12.6 12.6 12.6"
    />
    <path
      d="M195.636 123.562c-6.437-2.646-13.799.429-16.443 6.866-.205.499-20.667 50.175-34.423 73.258-10.022 16.815-28.046 36.859-57 36.859-16.56 0-32.114-6.476-43.796-18.235-11.68-11.757-18.272-27.501-18.558-44.331-.486-28.503-.004-107.001.001-107.791.043-6.958-5.562-12.634-12.52-12.678h-.082C5.895 57.51.261 63.1.218 70.031c-.005.793-.489 79.582.001 108.378.398 23.367 9.588 45.265 25.877 61.661 16.448 16.557 38.351 25.675 61.673 25.675 16.862 0 32.5-4.744 46.48-14.102 12.447-8.332 23.27-20.126 32.168-35.056 14.7-24.666 35.22-74.473 36.085-76.581 2.645-6.437-.429-13.799-6.866-16.444m40.91-10.175a.572.572 0 0 0-.573-.568h-6.75a.573.573 0 0 0-.573.568v33.143c0 .312.258.568.573.568h6.75a.572.572 0 0 0 .572-.568l.001-11.332c0-3.672 1.678-5.582 4.293-5.582 2.37 0 3.75 1.273 3.75 4.505v12.408c0 .312.258.568.573.568l6.848.001a.573.573 0 0 0 .573-.568l.001-15.102c0-6.023-2.912-9.402-8.34-9.402-3.8 0-6.168 1.861-7.698 4.26v-12.899m129.365 18.244c-1.054-1.053-2.393-1.917-4.25-1.917-3.159 0-5.247 2.105-5.247 5.141 0 3.037 2.115 5.142 5.246 5.142 1.855 0 3.183-.871 4.234-1.925a.568.568 0 0 1 .883.097l3.397 5.368a.564.564 0 0 1-.083.702c-2.046 1.99-4.925 3.446-8.57 3.446-7.076 0-12.652-4.848-12.652-12.83s5.576-12.829 12.651-12.829c3.645 0 6.535 1.443 8.582 3.43a.564.564 0 0 1 .084.708l-3.399 5.37a.569.569 0 0 1-.876.097m-44.138 8.366c-2.898 0-5.014-2.155-5.014-5.142 0-2.987 2.116-5.141 5.014-5.141 2.897 0 5.013 2.154 5.013 5.141s-2.116 5.142-5.013 5.142zm12.178-27.177h-6.689a.573.573 0 0 0-.573.568v12.702c-1.665-2.546-4.365-4.113-7.539-4.113-5.887 0-9.935 5.24-9.935 12.878 0 7.688 4.094 12.879 10.073 12.879 3.083 0 5.59-1.421 7.401-3.966v2.761c0 .312.258.568.573.568h6.69a.572.572 0 0 0 .572-.568v-33.141a.572.572 0 0 0-.573-.568zm82.901 22.035c0-2.987-2.114-5.141-5.007-5.141s-5.006 2.154-5.006 5.141 2.113 5.142 5.006 5.142c2.893 0 5.007-2.155 5.007-5.142zm-9.915 21.468a.573.573 0 0 1-.573.568h-6.689a.571.571 0 0 1-.572-.568v-33.141c0-.313.257-.568.572-.568l6.69-.002c.314 0 .572.256.572.568v2.763c1.811-2.546 4.311-3.966 7.388-3.966 5.971 0 10.058 5.19 10.058 12.878 0 7.64-4.04 12.879-9.92 12.879-3.169 0-5.86-1.567-7.526-4.113v12.702zm-60.829-33.141a.573.573 0 0 0-.573-.569l-6.75.001a.573.573 0 0 0-.573.568v23.348c0 .312.258.568.573.568l6.75-.001a.573.573 0 0 0 .573-.568v-23.347zm-8.587-7.571c0 2.644 1.974 4.603 4.64 4.603 2.663 0 4.637-1.959 4.637-4.603 0-2.644-1.974-4.603-4.638-4.603-2.665 0-4.639 1.959-4.639 4.603zm-39.062 30.918c0 .312.258.568.573.568l6.848.001a.573.573 0 0 0 .573-.568v-15.102c0-6.023-2.91-9.402-8.34-9.402-3.848 0-6.365 2.056-7.895 4.26v-3.104a.571.571 0 0 0-.572-.568l-6.553-.001a.573.573 0 0 0-.573.569v23.348c0 .312.258.568.573.568l6.75-.001a.573.573 0 0 0 .573-.568v-11.331c0-3.672 1.677-5.582 4.293-5.582 2.368 0 3.75 1.273 3.75 4.505v12.408m-42.402-19.793a.57.57 0 0 0 .123.762l4.025 3.162c.248.194.61.151.804-.097 1.321-1.58 3.835-1.952 5.688-1.952 2.467 0 4.241.928 4.241 2.036v.198c0 .444-.296.691-1.086.79l-6.66.592c-4.59.396-7.848 3.358-7.848 7.803 0 4.691 3.652 7.703 8.29 7.703 4.047 0 6.218-2.074 7.304-3.753v2.544c0 .315.257.573.572.573h6.75a.575.575 0 0 0 .573-.573v-14c0-7.457-3.948-10.568-11.35-10.568-4.869 0-9.285 1.406-11.426 4.78zm14.881 9.721v.479c0 2.718-2.077 4.636-5.005 4.636-1.97 0-3.035-.852-3.035-2.238 0-1.225.958-2.024 2.662-2.238l5.378-.639zm101.913-9.721a.572.572 0 0 0 .123.762L377 130.66a.575.575 0 0 0 .804-.097c1.32-1.58 3.835-1.952 5.687-1.952 2.468 0 4.241.928 4.241 2.036v.198c0 .444-.296.691-1.085.79l-6.662.592c-4.589.396-7.846 3.358-7.846 7.803 0 4.691 3.652 7.703 8.29 7.703 4.046 0 6.218-2.074 7.303-3.753v2.544c0 .315.258.573.573.573h6.75a.575.575 0 0 0 .572-.573l.001-14c0-7.457-3.948-10.568-11.35-10.568-4.869 0-9.285 1.406-11.427 4.78zm14.881 9.721v.479c0 2.718-2.077 4.636-5.005 4.636-1.97 0-3.035-.852-3.035-2.238 0-1.225.958-2.024 2.662-2.238l5.378-.639zm32.7 40.474c0 7.835 5.37 12.83 12.533 12.83 7.163 0 12.535-4.995 12.535-12.83s-5.372-12.829-12.535-12.829-12.534 4.994-12.534 12.829zm17.537 0c0 3.232-2.34 5.142-5.004 5.142-2.663 0-5.004-1.91-5.004-5.142s2.341-5.142 5.004-5.142c2.663 0 5.004 1.91 5.004 5.142zm-181.365 11.673c0 .313.258.569.573.569h6.848a.572.572 0 0 0 .573-.568v-15.102c0-6.023-2.91-9.401-8.339-9.401-3.849 0-6.366 2.056-7.896 4.26v-3.105a.572.572 0 0 0-.572-.568h-6.553a.572.572 0 0 0-.572.568v23.348c0 .313.257.568.572.568l6.75-.001a.573.573 0 0 0 .573-.568v-11.33c0-3.672 1.678-5.583 4.293-5.583 2.37 0 3.75 1.274 3.75 4.506v12.407m94.674 0c0 .313.258.569.573.569h6.848a.572.572 0 0 0 .573-.568v-15.102c0-6.023-2.912-9.401-8.34-9.401-3.848 0-6.365 2.056-7.895 4.26v-3.105a.573.573 0 0 0-.573-.568h-6.552a.573.573 0 0 0-.573.568v23.348c0 .313.258.568.573.568l6.75-.001a.572.572 0 0 0 .572-.568v-11.33c0-3.672 1.678-5.583 4.293-5.583 2.37 0 3.751 1.274 3.751 4.506v12.407m112.954 0c0 .312.257.568.572.568h6.85a.572.572 0 0 0 .571-.568v-15.1c0-6.023-2.91-9.402-8.339-9.402-3.849 0-6.365 2.057-7.895 4.26v-3.104a.572.572 0 0 0-.573-.568l-6.553-.001a.572.572 0 0 0-.572.568v23.347c0 .312.257.568.572.568h6.75a.573.573 0 0 0 .573-.568v-11.329c0-3.673 1.678-5.583 4.293-5.583 2.37 0 3.751 1.273 3.751 4.505v12.407m-227.686-23.347a.573.573 0 0 0-.573-.568h-6.75a.573.573 0 0 0-.573.568v23.348c0 .313.258.568.573.568l6.75-.001a.573.573 0 0 0 .573-.568v-23.347zm-8.586-7.57c0 2.644 1.974 4.603 4.638 4.603 2.665 0 4.64-1.959 4.64-4.603 0-2.645-1.975-4.603-4.64-4.603-2.664 0-4.638 1.958-4.638 4.603z"
    />
    <path
      d="M417.436 165.257a.573.573 0 0 0-.573-.568h-6.75a.572.572 0 0 0-.572.568v23.348c0 .313.257.568.572.568l6.75-.001a.573.573 0 0 0 .573-.568v-23.347zm-8.586-7.57c0 2.644 1.974 4.603 4.638 4.603 2.665 0 4.64-1.959 4.64-4.603 0-2.645-1.975-4.603-4.64-4.603-2.664 0-4.638 1.958-4.638 4.603zm101.504-2.222a.573.573 0 0 0-.573-.568h-6.75a.573.573 0 0 0-.573.569v33.138c0 .312.258.568.573.568h6.75a.573.573 0 0 0 .573-.568v-33.139m-226.078 33.229c-1.984.47-4.013.724-5.528.724-4.688 0-7.55-2.301-7.55-8.129v-10.136l-3.67-.001a.573.573 0 0 1-.573-.568v-5.327c0-.312.258-.568.573-.568h3.67v-5.993c0-.312.258-.568.573-.568h6.75c.315 0 .572.256.572.568v5.993h5.397c.316 0 .573.256.573.568v5.327a.572.572 0 0 1-.573.568l-5.397.001v8.52c0 1.371.84 1.763 2.27 1.763.523 0 1.162-.076 2.7-.296a.573.573 0 0 1 .657.561v6.44c0 .268-.19.494-.444.553m120.674 0c-1.984.47-4.012.724-5.528.724-4.688 0-7.55-2.301-7.55-8.129v-10.136l-3.67-.001a.573.573 0 0 1-.573-.568v-5.327c0-.312.258-.568.573-.568h3.67v-5.993c0-.312.258-.568.573-.568h6.75c.315 0 .573.256.573.568v5.993h5.397c.315 0 .572.256.572.568v5.327a.572.572 0 0 1-.572.568l-5.397.001v8.52c0 1.372.84 1.763 2.27 1.763.523 0 1.161-.076 2.698-.296a.573.573 0 0 1 .657.561v6.44c0 .268-.19.494-.443.553m-42.196-19.93a.572.572 0 0 0 .124.763l4.025 3.16a.574.574 0 0 0 .804-.096c1.32-1.579 3.835-1.952 5.688-1.952 2.467 0 4.24.929 4.24 2.037v.197c0 .444-.296.691-1.085.79l-6.662.593c-4.589.395-7.846 3.358-7.846 7.802 0 4.69 3.652 7.703 8.29 7.703 4.046 0 6.218-2.074 7.303-3.753v2.591c0 .315.258.573.573.573h6.75a.574.574 0 0 0 .572-.573l.001-14.047c0-7.456-3.948-10.567-11.35-10.567-4.869 0-9.285 1.405-11.427 4.779zm14.881 9.721v.479c0 2.718-2.076 4.636-5.005 4.636-1.97 0-3.035-.852-3.035-2.238 0-1.225.96-2.025 2.662-2.238l5.378-.639zm98.072-9.721a.572.572 0 0 0 .123.763l4.026 3.16a.574.574 0 0 0 .804-.096c1.32-1.579 3.834-1.952 5.687-1.952 2.468 0 4.241.929 4.241 2.037v.197c0 .444-.296.691-1.086.79l-6.662.593c-4.588.395-7.845 3.358-7.845 7.802 0 4.69 3.651 7.703 8.29 7.703 4.046 0 6.217-2.074 7.303-3.753v2.591c0 .315.258.573.573.573h6.75a.575.575 0 0 0 .572-.573v-14.047c0-7.456-3.948-10.567-11.35-10.567-4.868 0-9.285 1.405-11.426 4.779zm14.881 9.721v.479c0 2.718-2.077 4.636-5.005 4.636-1.97 0-3.036-.852-3.036-2.238 0-1.225.96-2.025 2.663-2.238l5.378-.639zm-180.125 8.366a.573.573 0 0 1-.22.726c-2.043 1.261-4.88 2.293-9.39 2.293-8.884 0-13.62-5.976-13.62-13.086 0-7.308 4.983-12.789 12.928-12.789 7.402 0 12.385 4.888 12.385 13.233v2.124h-17.22l.048.099c1.135 2.271 3.753 3.653 5.805 3.653 2.34 0 4.396-.63 6.06-1.758a.506.506 0 0 1 .291-.095c.235 0 .438.169.53.411l2.403 5.189zm-10.13-16.642c-2.463 0-4.476 1.064-5.26 3.751h10.014c-.28-2.071-2.014-3.751-4.755-3.751zm31.375 2.537c-.772-.19-1.672-.275-2.489-.275-3.526 0-5.582 1.616-5.582 5.876v10.252a.57.57 0 0 1-.57.57h-6.695a.57.57 0 0 1-.57-.57v-23.344a.57.57 0 0 1 .57-.57h6.401a.57.57 0 0 1 .57.57v3.69c1.224-2.938 3.281-4.848 6.71-4.848.755 0 1.35.098 1.94.266.236.07.41.289.41.548v7.282a.57.57 0 0 1-.695.553m-98.887 43.867a5.825 5.825 0 0 1 1.9-1.824c.766-.458 1.71-.688 2.825-.688 1.755 0 3.076.533 3.963 1.6.888 1.067 1.331 2.547 1.331 4.441v9.272h-4.037v-8.285c0-1.077-.235-1.883-.703-2.423-.469-.538-1.142-.807-2.019-.807-1.137 0-1.964.394-2.482 1.182-.519.788-.778 1.849-.778 3.185v7.148h-3.948v-20.936h3.948v8.135m26.587 12.801h-3.828v-2.274a6.882 6.882 0 0 1-1.914 1.885c-.758.498-1.705.748-2.842.748-1.734 0-3.03-.544-3.887-1.631-.858-1.086-1.287-2.547-1.287-4.381v-9.301h4.04v8.314c0 1.077.198 1.88.596 2.408.4.528 1.037.792 1.914.792 1.116 0 1.935-.403 2.452-1.211.52-.807.78-1.859.78-3.155v-7.148h3.976v14.954m17.675-14.536c.817-.518 1.854-.777 3.11-.777 1.754 0 3.135.548 4.142 1.645 1.007 1.096 1.511 2.622 1.511 4.576v9.092h-3.978v-8.285c0-2.153-.897-3.23-2.692-3.23-.598 0-1.107.11-1.525.329-.418.22-.757.523-1.017.912a4.098 4.098 0 0 0-.568 1.376 7.905 7.905 0 0 0-.179 1.75v7.148h-3.948v-8.285c0-2.153-.908-3.23-2.722-3.23-.598 0-1.102.11-1.51.329a2.75 2.75 0 0 0-1.002.912 3.87 3.87 0 0 0-.554 1.376 8.669 8.669 0 0 0-.164 1.75v7.148h-3.948V214.46h3.828v2.183a6.106 6.106 0 0 1 1.795-1.81c.737-.488 1.695-.732 2.871-.732 2.233 0 3.78.927 4.636 2.781a5.587 5.587 0 0 1 1.914-2.004m16.777 8.345c-.618.1-1.082.294-1.39.583a1.398 1.398 0 0 0-.464 1.062c0 .478.18.862.538 1.151.36.289.888.434 1.585.434.52 0 .992-.085 1.421-.254.43-.17.792-.394 1.092-.673.3-.279.528-.604.687-.973a2.95 2.95 0 0 0 .24-1.18v-.599l-3.709.449zm-3.08-8.255c1.156-.558 2.551-.837 4.187-.837 2.192 0 3.833.489 4.92 1.465 1.086.978 1.63 2.513 1.63 4.607v9.241h-3.949v-2.034c-.398.598-.97 1.136-1.719 1.615-.748.478-1.71.718-2.886.718a5.835 5.835 0 0 1-2.034-.344 4.87 4.87 0 0 1-1.6-.957 4.287 4.287 0 0 1-1.047-1.466 4.68 4.68 0 0 1-.374-1.899c0-.678.12-1.291.36-1.839a4.214 4.214 0 0 1 1.002-1.421 5.217 5.217 0 0 1 1.51-.972 6.149 6.149 0 0 1 1.913-.464l4.098-.358c.52-.061.777-.26.777-.599v-.239c0-.438-.209-.797-.627-1.076-.419-.279-1.078-.419-1.974-.419-.4 0-.788.035-1.167.104-.379.071-.737.18-1.076.329-.339.15-.639.344-.898.583-.259.24-.459.54-.598.898l-2.93-2.094c.498-1.136 1.325-1.983 2.481-2.542zm19.005-.164c.808-.469 1.76-.703 2.857-.703 1.754 0 3.075.533 3.962 1.6.887 1.067 1.331 2.547 1.331 4.441v9.272h-4.037v-8.285c0-1.136-.245-1.959-.734-2.467-.488-.508-1.15-.763-1.988-.763-1.156 0-1.989.394-2.497 1.182-.509.788-.763 1.849-.763 3.185v7.148h-3.948V214.46h3.828v2.153a6.196 6.196 0 0 1 1.99-1.809m11.288 14.61h3.948V214.46h-3.948v14.954zm.18-21.041c.478-.488 1.076-.732 1.794-.732s1.32.244 1.81.732c.488.49.732 1.092.732 1.81s-.244 1.316-.732 1.795c-.49.478-1.092.718-1.81.718s-1.316-.24-1.795-.718c-.479-.479-.718-1.077-.718-1.795s.24-1.32.718-1.81zm14.011 21.071c-.548.079-1.072.119-1.57.119-1.396 0-2.478-.358-3.246-1.076-.767-.718-1.15-1.935-1.15-3.65v-7.057h-2.722v-3.32h2.721v-4.007h3.948v4.007h3.798v3.32h-3.798v6.489c0 .479.12.823.36 1.032.238.209.617.315 1.135.315.3 0 .604-.016.912-.045.31-.031.733-.095 1.272-.195v3.739c-.559.139-1.11.249-1.66.329M344.401 227.26l-6.34-12.8h4.605l3.828 8.195 3.679-8.195h4.187l-9.42 20.935h-4.188l3.649-8.135M368.491 214.684c.31-.369.463-.812.463-1.331 0-.538-.149-.946-.448-1.226a1.562 1.562 0 0 0-1.107-.419c-.458 0-.837.145-1.136.434-.299.289-.448.663-.448 1.121 0 .34.074.658.223.957.151.3.364.589.644.868l.597.658a5.866 5.866 0 0 0 1.212-1.062zm.33 10.871a6.651 6.651 0 0 0 1.51-.807l-3.978-4.277c-.638.379-1.152.777-1.54 1.196-.389.419-.583.957-.583 1.616 0 .757.244 1.376.732 1.854.488.479 1.221.718 2.198.718.578 0 1.132-.1 1.66-.3zm1.464 3.65c-.967.378-2.038.568-3.215.568-1.056 0-2.008-.15-2.856-.449-.847-.299-1.565-.723-2.153-1.271a5.598 5.598 0 0 1-1.36-1.989c-.32-.777-.479-1.635-.479-2.572 0-.718.094-1.366.284-1.944a5.911 5.911 0 0 1 .763-1.555 6.38 6.38 0 0 1 1.136-1.242 13.38 13.38 0 0 1 1.406-1.031 11.336 11.336 0 0 1-1.48-1.959c-.41-.688-.614-1.53-.614-2.527 0-.698.13-1.361.39-1.989a4.879 4.879 0 0 1 1.105-1.645c.48-.469 1.072-.838 1.78-1.106.707-.27 1.51-.405 2.407-.405.837 0 1.595.125 2.273.374a5.04 5.04 0 0 1 1.735 1.047c.48.448.847.997 1.107 1.645s.388 1.361.388 2.138c0 1.217-.289 2.239-.867 3.066a8.008 8.008 0 0 1-2.183 2.108l3.05 3.231c.28-.439.543-.898.792-1.376.25-.479.495-.977.734-1.495l3.32 1.943a37.42 37.42 0 0 1-.987 2.004c-.34.639-.708 1.246-1.108 1.824l2.035 2.184-2.902 2.781-1.794-1.944a10.212 10.212 0 0 1-2.707 1.586zm15.865.209h3.948V214.46h-3.948v14.954zm.18-21.041c.478-.488 1.076-.732 1.794-.732s1.32.244 1.81.732c.488.49.732 1.092.732 1.81s-.244 1.316-.732 1.795c-.49.478-1.092.718-1.81.718s-1.316-.24-1.795-.718c-.478-.479-.718-1.077-.718-1.795s.24-1.32.718-1.81zm12.665 6.431c.808-.469 1.76-.703 2.856-.703 1.755 0 3.076.533 3.963 1.6.887 1.067 1.331 2.547 1.331 4.441v9.272h-4.037v-8.285c0-1.136-.245-1.959-.734-2.467-.488-.508-1.15-.763-1.988-.763-1.156 0-1.989.394-2.497 1.182-.509.788-.763 1.849-.763 3.185v7.148h-3.948V214.46h3.828v2.153a6.186 6.186 0 0 1 1.99-1.809m10.75 3.918c.4-.968.952-1.795 1.66-2.482a7.22 7.22 0 0 1 2.528-1.585c.976-.369 2.044-.554 3.2-.554 1.196 0 2.272.194 3.23.583.956.389 1.774.922 2.452 1.601l-2.243 3.17a5.875 5.875 0 0 0-1.465-1.062c-.559-.289-1.216-.434-1.974-.434a4.18 4.18 0 0 0-1.556.285 3.632 3.632 0 0 0-1.24.806c-.35.35-.624.768-.823 1.257a4.279 4.279 0 0 0-.299 1.63c0 .598.1 1.142.3 1.63.198.488.472.907.821 1.256.35.348.763.618 1.241.807.48.19.997.284 1.556.284.758 0 1.431-.149 2.018-.448a5.918 5.918 0 0 0 1.511-1.077l2.183 3.17c-.638.639-1.446 1.167-2.423 1.585-.977.419-2.093.629-3.35.629-1.135 0-2.192-.185-3.17-.554a7.097 7.097 0 0 1-2.51-1.585 7.443 7.443 0 0 1-1.647-2.468c-.398-.957-.597-2.033-.597-3.229 0-1.177.2-2.248.597-3.215M424.191 229.414h3.977v-20.936h-3.977zM444.468 229.414h-3.828v-2.274a6.909 6.909 0 0 1-1.914 1.885c-.758.498-1.705.748-2.842.748-1.735 0-3.03-.544-3.888-1.631-.857-1.086-1.286-2.547-1.286-4.381v-9.301h4.038v8.314c0 1.077.2 1.88.598 2.408.398.528 1.037.792 1.914.792 1.116 0 1.934-.403 2.452-1.211.52-.807.778-1.859.778-3.155v-7.148h3.978v14.954m4.246-14.072c1.116-.827 2.661-1.241 4.636-1.241 1.375 0 2.547.199 3.513.598.967.399 1.78.937 2.438 1.615l-2.213 2.871c-.419-.458-.997-.827-1.735-1.106a6.435 6.435 0 0 0-2.303-.419c-1.276 0-1.914.349-1.914 1.046 0 .18.055.334.165.464.11.13.3.249.568.359.27.11.628.215 1.076.314.45.1 1.002.22 1.661.36.658.138 1.276.313 1.854.522.578.21 1.081.494 1.51.853.43.359.772.807 1.032 1.345.26.539.39 1.197.39 1.975 0 1.714-.579 2.955-1.736 3.723-1.157.767-2.73 1.152-4.725 1.152-1.436 0-2.737-.205-3.904-.613-1.166-.41-2.078-1.033-2.736-1.87l2.303-2.991c.5.599 1.146 1.073 1.944 1.421.798.349 1.725.524 2.781.524.56 0 1.033-.085 1.421-.255.39-.169.583-.463.583-.882a.794.794 0 0 0-.165-.509c-.109-.14-.294-.259-.552-.358-.26-.1-.604-.2-1.033-.299-.428-.1-.952-.22-1.57-.36a15.376 15.376 0 0 1-1.719-.478 5.686 5.686 0 0 1-1.6-.837 4.342 4.342 0 0 1-1.182-1.361c-.309-.548-.463-1.232-.463-2.049 0-1.515.558-2.687 1.675-3.514m12.441 14.072h3.948V214.46h-3.948v14.954zm.18-21.041c.478-.488 1.076-.732 1.794-.732s1.32.244 1.81.732c.488.49.732 1.092.732 1.81s-.244 1.316-.732 1.795c-.49.478-1.092.718-1.81.718s-1.316-.24-1.795-.718c-.478-.479-.718-1.077-.718-1.795s.24-1.32.718-1.81zm17.435 11.934a3.672 3.672 0 0 0-.838-1.257 3.75 3.75 0 0 0-1.27-.806 4.292 4.292 0 0 0-1.57-.285c-.56 0-1.083.095-1.57.285a3.731 3.731 0 0 0-1.272.806c-.359.35-.639.768-.838 1.257a4.279 4.279 0 0 0-.299 1.63c0 .598.1 1.142.3 1.63.198.488.478.907.837 1.256.358.348.782.618 1.271.807.488.19 1.011.284 1.57.284.558 0 1.082-.094 1.57-.284a3.753 3.753 0 0 0 1.271-.807c.36-.349.638-.768.838-1.256a4.282 4.282 0 0 0 .298-1.63c0-.599-.099-1.142-.298-1.63zm-11.11-1.556a7.358 7.358 0 0 1 1.69-2.482 7.592 7.592 0 0 1 2.541-1.6c.977-.379 2.044-.568 3.2-.568 1.156 0 2.223.189 3.2.568a7.602 7.602 0 0 1 2.542 1.6 7.373 7.373 0 0 1 1.69 2.482c.41.967.613 2.03.613 3.186 0 1.176-.204 2.243-.613 3.2a7.4 7.4 0 0 1-1.69 2.467 7.604 7.604 0 0 1-2.542 1.601c-.977.378-2.044.568-3.2.568-1.156 0-2.223-.19-3.2-.568a7.594 7.594 0 0 1-2.542-1.601 7.385 7.385 0 0 1-1.69-2.467c-.409-.957-.613-2.024-.613-3.2 0-1.156.204-2.219.613-3.186zm22.878-3.947c.808-.469 1.76-.703 2.856-.703 1.755 0 3.076.533 3.963 1.6.887 1.067 1.331 2.547 1.331 4.441v9.272h-4.038v-8.285c0-1.136-.244-1.959-.733-2.467-.488-.508-1.15-.763-1.988-.763-1.156 0-1.989.394-2.497 1.182-.509.788-.763 1.849-.763 3.185v7.148h-3.948V214.46h3.828v2.153a6.186 6.186 0 0 1 1.99-1.809"
    />
  </g>
</svg>
