<svg width="188" height="59" viewBox="0 0 188 59" fill="none" xmlns="http://www.w3.org/2000/svg">
  <g clip-path="url(#clip0_1783_504)">
    <path
      d="M0.995117 30.8254H3.46006L11.5071 50.6101L19.6793 30.8254H22.019V52.7943H20.2394V33.9618C20.1362 34.1471 19.8009 34.9357 19.2409 36.3313C18.9903 36.9273 18.6808 37.6796 18.305 38.5918C17.9292 39.5039 17.4686 40.6233 16.9159 41.9461C16.3633 43.269 15.7148 44.8244 14.9668 46.6088C14.2189 48.3932 13.353 50.4538 12.3766 52.7943H10.5675L2.77474 34.0853V52.7943H0.995117V30.8254Z"
      fill="white"
    />
    <path
      d="M36.8125 36.9491H38.6216V39.533C39.4948 38.4464 40.427 37.6614 41.4145 37.178C42.4019 36.6947 43.4594 36.4548 44.5795 36.4548C46.4107 36.4548 47.7629 36.9564 48.6361 37.963C49.5094 38.9697 49.9478 40.3943 49.9478 42.2405V52.7943H48.1387V42.7311C48.1387 41.0703 47.8366 39.8746 47.2323 39.1478C46.6281 38.4209 45.6738 38.0539 44.3621 38.0539C43.7394 38.0539 43.0762 38.1738 42.3798 38.4064C41.6834 38.6426 41.0534 39.017 40.4933 39.5294C39.8707 40.0636 39.4027 40.6124 39.0895 41.1757C38.7764 41.739 38.6216 42.5131 38.6216 43.4979V52.7906H36.8125V36.9455V36.9491Z"
      fill="white"
    />
    <path
      d="M67.6335 48.6404C67.3829 50.0141 66.7197 51.1335 65.6364 51.9948C64.5532 52.8561 63.0168 53.2886 61.0197 53.2886C58.7095 53.2886 56.9189 52.5544 55.6403 51.0899C54.3618 49.6216 53.7207 47.6083 53.7207 45.0425C53.7207 43.647 53.9012 42.4186 54.266 41.3502C54.6308 40.2853 55.1392 39.3877 55.7951 38.6572C56.4509 37.9304 57.221 37.3816 58.1053 37.0109C58.9896 36.6402 59.9623 36.4585 61.0234 36.4585C62.2725 36.4585 63.3336 36.6584 64.2069 37.0581C65.0801 37.4579 65.7912 38.003 66.3439 38.6899C66.8966 39.3768 67.2945 40.1908 67.545 41.1357C67.7956 42.0806 67.9209 43.0946 67.9209 44.1812V45.3187H55.5666C55.5666 46.22 55.6809 47.0668 55.9093 47.859C56.1377 48.6477 56.4804 49.3345 56.9373 49.9196C57.3942 50.5047 57.9653 50.9663 58.6543 51.3043C59.3433 51.6422 60.1318 51.8131 61.0234 51.8131C61.834 51.8131 62.5193 51.7367 63.0831 51.5841C63.6431 51.4315 64.1111 51.2098 64.4869 50.9227C64.8627 50.6356 65.1575 50.3012 65.3748 49.9233C65.5922 49.5453 65.7654 49.1201 65.8907 48.6477H67.6371L67.6335 48.6404ZM66.0417 43.7778C66.0417 42.9165 65.9496 42.1279 65.7617 41.4083C65.5738 40.6924 65.2827 40.0709 64.8885 39.5476C64.4942 39.0243 63.9747 38.6209 63.3299 38.3338C62.6851 38.0466 61.9151 37.9013 61.0197 37.9013C59.4612 37.9013 58.2121 38.3846 57.2763 39.3477C56.3404 40.3108 55.7803 41.7899 55.5924 43.7778H66.0417Z"
      fill="white"
    />
    <path
      d="M72.6556 48.3933C72.884 49.6253 73.4146 50.4975 74.2473 51.0099C75.08 51.5223 76.2627 51.7803 77.8029 51.7803C79.343 51.7803 80.4631 51.4932 81.1079 50.919C81.7527 50.3448 82.0732 49.6253 82.0732 48.764C82.0732 48.3933 82.0327 48.0516 81.948 47.7318C81.8632 47.412 81.7048 47.1213 81.4653 46.856C81.2258 46.5907 80.8831 46.3654 80.4373 46.18C79.9915 45.9947 79.413 45.842 78.7056 45.7185L76.7417 45.4096C75.8906 45.2678 75.1242 45.0934 74.45 44.8862C73.7757 44.6827 73.2009 44.4102 72.733 44.0722C72.265 43.7342 71.9113 43.3126 71.6718 42.8111C71.4323 42.3096 71.3144 41.6881 71.3144 40.9504C71.3144 40.2526 71.4692 39.6239 71.7824 39.057C72.0956 38.4937 72.5193 38.0212 73.0609 37.6433C73.6025 37.2653 74.2399 36.9709 74.9805 36.7674C75.7174 36.5639 76.5133 36.4585 77.3681 36.4585C78.4698 36.4585 79.3909 36.5675 80.1278 36.7819C80.8647 36.9964 81.469 37.2907 81.9369 37.6578C82.4048 38.0285 82.7696 38.4573 83.0275 38.9516C83.2891 39.4422 83.4918 39.9655 83.6355 40.5215L81.9811 40.8595C81.8153 40.3871 81.6237 39.9728 81.4027 39.613C81.1853 39.2532 80.9089 38.9552 80.5773 38.719C80.2457 38.4828 79.8294 38.3047 79.3283 38.1811C78.8309 38.0576 78.2045 37.9958 77.4565 37.9958C76.6238 37.9958 75.9275 38.0721 75.3674 38.2247C74.8074 38.3774 74.3542 38.5881 74.0115 38.8571C73.6688 39.1224 73.422 39.4313 73.2783 39.7802C73.1309 40.1291 73.0609 40.4888 73.0609 40.8559C73.0609 41.223 73.1014 41.5573 73.1862 41.8553C73.2672 42.1533 73.4367 42.415 73.6836 42.6403C73.9341 42.8656 74.2805 43.0619 74.73 43.2254C75.1758 43.3889 75.7653 43.5343 76.4912 43.6542L78.9561 44.054C80.64 44.3411 81.9001 44.839 82.7291 45.5477C83.5618 46.2563 83.9781 47.3393 83.9781 48.793C83.9781 49.4072 83.8492 49.9923 83.5876 50.5483C83.326 51.1007 82.9428 51.5805 82.4343 51.9802C81.9259 52.38 81.2848 52.6998 80.5147 52.9324C79.7446 53.1686 78.8603 53.2849 77.8618 53.2849C76.8633 53.2849 75.9864 53.1941 75.1648 53.0087C74.3431 52.8234 73.632 52.5363 73.0277 52.1474C72.4235 51.7585 71.9371 51.2534 71.5613 50.6392C71.1855 50.025 70.957 49.2764 70.876 48.3933H72.6556Z"
      fill="white"
    />
    <path
      d="M85.8203 36.9491H87.8173L91.5608 50.7955L95.6469 37.04H97.7692L101.763 50.7955L105.507 36.9491H107.441L102.732 52.7943H100.643L96.6196 38.9479L92.563 52.7943H90.4739L85.824 36.9491H85.8203Z"
      fill="white"
    />
    <path
      d="M122.846 48.6404C122.595 50.0141 121.932 51.1335 120.849 51.9948C119.766 52.8561 118.229 53.2886 116.232 53.2886C113.922 53.2886 112.131 52.5544 110.853 51.0899C109.574 49.6216 108.933 47.6083 108.933 45.0425C108.933 43.647 109.114 42.4186 109.478 41.3502C109.843 40.2853 110.352 39.3877 111.007 38.6572C111.663 37.9304 112.433 37.3816 113.318 37.0109C114.202 36.6402 115.175 36.4585 116.236 36.4585C117.485 36.4585 118.546 36.6584 119.419 37.0581C120.292 37.4579 121.004 38.003 121.556 38.6899C122.109 39.3768 122.507 40.1908 122.757 41.1357C123.008 42.0806 123.133 43.0946 123.133 44.1812V45.3187H110.779C110.779 46.22 110.893 47.0668 111.122 47.859C111.35 48.6477 111.693 49.3345 112.15 49.9196C112.607 50.5047 113.178 50.9663 113.867 51.3043C114.556 51.6422 115.344 51.8131 116.236 51.8131C117.046 51.8131 117.732 51.7367 118.295 51.5841C118.856 51.4315 119.323 51.2098 119.699 50.9227C120.075 50.6356 120.37 50.3012 120.587 49.9233C120.805 49.5453 120.978 49.1201 121.103 48.6477H122.85L122.846 48.6404ZM121.254 43.7778C121.254 42.9165 121.162 42.1279 120.974 41.4083C120.786 40.6924 120.495 40.0709 120.101 39.5476C119.707 39.0243 119.187 38.6209 118.542 38.3338C117.898 38.0466 117.127 37.9013 116.232 37.9013C114.674 37.9013 113.425 38.3846 112.489 39.3477C111.553 40.3108 110.993 41.7899 110.805 43.7778H121.254Z"
      fill="white"
    />
    <path
      d="M140.318 48.6404C140.067 50.0141 139.404 51.1335 138.321 51.9948C137.238 52.8561 135.701 53.2886 133.704 53.2886C131.394 53.2886 129.603 52.5544 128.325 51.0899C127.046 49.6216 126.405 47.6083 126.405 45.0425C126.405 43.647 126.586 42.4186 126.951 41.3502C127.315 40.2853 127.824 39.3877 128.48 38.6572C129.136 37.9304 129.906 37.3816 130.79 37.0109C131.674 36.6402 132.647 36.4585 133.708 36.4585C134.957 36.4585 136.018 36.6584 136.891 37.0581C137.765 37.4579 138.476 38.003 139.028 38.6899C139.581 39.3768 139.979 40.1908 140.23 41.1357C140.48 42.0806 140.605 43.0946 140.605 44.1812V45.3187H128.251C128.251 46.22 128.365 47.0668 128.594 47.859C128.822 48.6477 129.165 49.3345 129.622 49.9196C130.079 50.5047 130.65 50.9663 131.339 51.3043C132.028 51.6422 132.816 51.8131 133.708 51.8131C134.519 51.8131 135.204 51.7367 135.768 51.5841C136.328 51.4315 136.796 51.2098 137.171 50.9227C137.547 50.6356 137.842 50.3012 138.059 49.9233C138.277 49.5453 138.45 49.1201 138.575 48.6477H140.322L140.318 48.6404ZM138.726 43.7778C138.726 42.9165 138.634 42.1279 138.446 41.4083C138.258 40.6924 137.967 40.0709 137.573 39.5476C137.179 39.0243 136.659 38.6209 136.015 38.3338C135.37 38.0466 134.6 37.9013 133.704 37.9013C132.146 37.9013 130.897 38.3846 129.961 39.3477C129.025 40.3108 128.465 41.7899 128.277 43.7778H138.726Z"
      fill="white"
    />
    <path
      d="M144.371 36.9491H146.18V39.3186C146.91 38.4173 147.709 37.7123 148.582 37.2108C149.456 36.7093 150.517 36.4585 151.766 36.4585C153.015 36.4585 153.976 36.6693 154.839 37.0908C155.701 37.5124 156.419 38.0903 156.99 38.828C157.561 39.5658 157.989 40.438 158.269 41.4446C158.549 42.4513 158.689 43.5379 158.689 44.7045C158.689 46.0601 158.516 47.263 158.173 48.3206C157.83 49.3781 157.348 50.2758 156.721 51.0135C156.099 51.7513 155.343 52.3146 154.459 52.7071C153.575 53.0959 152.584 53.2922 151.478 53.2922C150.502 53.2922 149.559 53.0959 148.656 52.7071C147.75 52.3182 146.924 51.6313 146.176 50.6465V58.7689H144.367V36.9527L144.371 36.9491ZM146.117 45.5041C146.117 46.2018 146.154 46.8124 146.228 47.3357C146.302 47.859 146.427 48.3242 146.604 48.7349C146.781 49.1455 147.005 49.509 147.274 49.8251C147.543 50.145 147.879 50.4357 148.273 50.701C148.752 51.0717 149.238 51.337 149.739 51.5005C150.237 51.6641 150.811 51.7476 151.456 51.7476C152.226 51.7476 152.934 51.6204 153.578 51.3624C154.223 51.1044 154.78 50.701 155.248 50.1486C155.716 49.5962 156.084 48.873 156.357 47.979C156.626 47.0849 156.762 46.0056 156.762 44.7336C156.762 43.4616 156.611 42.3641 156.309 41.5028C156.007 40.6415 155.616 39.9473 155.137 39.424C154.658 38.9007 154.116 38.53 153.516 38.3156C152.912 38.1012 152.318 37.9921 151.736 37.9921C151.091 37.9921 150.509 38.0648 149.99 38.2066C149.47 38.3519 148.951 38.6172 148.431 39.0061C147.702 39.5403 147.138 40.2126 146.733 41.0231C146.327 41.8335 146.125 42.8656 146.125 44.1158V45.5004L146.117 45.5041Z"
      fill="white"
    />
    <path
      d="M175.973 48.6404C175.723 50.0141 175.06 51.1335 173.976 51.9948C172.893 52.8561 171.357 53.2886 169.36 53.2886C167.049 53.2886 165.259 52.5544 163.98 51.0899C162.702 49.6216 162.061 47.6083 162.061 45.0425C162.061 43.647 162.241 42.4186 162.606 41.3502C162.971 40.2853 163.479 39.3877 164.135 38.6572C164.791 37.9304 165.561 37.3816 166.445 37.0109C167.329 36.6402 168.302 36.4585 169.363 36.4585C170.612 36.4585 171.673 36.6584 172.547 37.0581C173.42 37.4579 174.131 38.003 174.684 38.6899C175.236 39.3768 175.634 40.1908 175.885 41.1357C176.135 42.0806 176.261 43.0946 176.261 44.1812V45.3187H163.906C163.906 46.22 164.021 47.0668 164.249 47.859C164.478 48.6477 164.82 49.3345 165.277 49.9196C165.734 50.5047 166.305 50.9663 166.994 51.3043C167.683 51.6422 168.472 51.8131 169.363 51.8131C170.174 51.8131 170.859 51.7367 171.423 51.5841C171.983 51.4315 172.451 51.2098 172.827 50.9227C173.203 50.6356 173.497 50.3012 173.715 49.9233C173.932 49.5453 174.105 49.1201 174.231 48.6477H175.977L175.973 48.6404ZM174.382 43.7778C174.382 42.9165 174.289 42.1279 174.102 41.4083C173.914 40.6924 173.623 40.0709 173.228 39.5476C172.834 39.0243 172.315 38.6209 171.67 38.3338C171.025 38.0466 170.255 37.9013 169.36 37.9013C167.801 37.9013 166.552 38.3846 165.616 39.3477C164.68 40.3108 164.12 41.7899 163.932 43.7778H174.382Z"
      fill="white"
    />
    <path
      d="M180.03 36.949H181.839V39.533C182.484 38.6317 183.221 37.9339 184.053 37.4397C184.886 36.949 185.77 36.7019 186.706 36.7019C186.935 36.7019 187.148 36.7055 187.347 36.7164C187.546 36.7273 187.756 36.7528 187.988 36.7928L187.771 38.4863C187.395 38.4245 187.052 38.3955 186.743 38.3955C186.201 38.3955 185.652 38.4936 185.089 38.6862C184.529 38.8824 183.998 39.2131 183.497 39.6856C183.018 40.0963 182.624 40.5941 182.311 41.1793C181.997 41.7644 181.843 42.4549 181.843 43.2544V52.7942H180.033V36.949H180.03Z"
      fill="white"
    />
    <path d="M29.0674 42.1678L30.8765 42.9165V52.7943H29.0674V42.1678Z" fill="white" />
    <path d="M30.8765 42.9165V30.8254L16.2563 36.8691L30.8765 42.9165Z" fill="#0077C8" />
    <path d="M34.583 52.7943V51.0099H25.3606V52.7943H34.583Z" fill="white" />
    <path d="M32.3726 51.0099V49.2255H27.5716V51.0099H32.3726Z" fill="white" />
    <path
      d="M0.995117 0.22168H7.98466C9.58742 0.22168 10.9028 0.396122 11.9308 0.745007C12.9588 1.09389 13.773 1.54453 14.3626 2.10057C14.9558 2.65297 15.3611 3.28896 15.5785 4.00853C15.7958 4.72811 15.9064 5.45495 15.9064 6.1927C15.9064 7.58823 15.5895 8.77662 14.9558 9.7615C14.322 10.7464 13.2867 11.495 11.8534 12.0074L16.658 22.1905H14.4436L9.98167 12.4363C9.62795 12.4763 9.26319 12.5126 8.89105 12.5453C8.51523 12.5744 8.12098 12.5926 7.70463 12.5926H2.86685V22.1941H0.995117V0.22168ZM8.23152 10.9281C9.3553 10.9281 10.2838 10.8191 11.0244 10.6046C11.7613 10.3902 12.3508 10.0777 12.7856 9.66701C13.224 9.25634 13.5299 8.76572 13.7067 8.19151C13.8836 7.61731 13.972 6.95952 13.972 6.22177C13.972 5.48402 13.8799 4.87348 13.692 4.32834C13.5041 3.78685 13.1761 3.32893 12.7082 2.95824C12.2403 2.58755 11.6176 2.31135 10.8365 2.12601C10.0554 1.94066 9.07527 1.84981 7.88886 1.84981H2.86685V10.9281H8.23152Z"
      fill="white"
    />
    <path
      d="M32.4718 18.0366C32.2213 19.4104 31.5581 20.5297 30.4748 21.391C29.3916 22.2523 27.8551 22.6848 25.8581 22.6848C23.5479 22.6848 21.7572 21.9507 20.4787 20.4861C19.2002 19.0179 18.5591 17.0045 18.5591 14.4388C18.5591 13.0432 18.7396 11.8149 19.1044 10.7464C19.4692 9.68157 19.9776 8.78391 20.6335 8.05344C21.2893 7.32659 22.0594 6.77783 22.9437 6.40714C23.828 6.03645 24.8007 5.85474 25.8618 5.85474C27.1109 5.85474 28.172 6.05462 29.0452 6.45438C29.9185 6.85415 30.6296 7.39928 31.1823 8.08614C31.7349 8.77301 32.1329 9.59071 32.3834 10.532C32.634 11.4769 32.7592 12.4908 32.7592 13.5774V14.715H20.405C20.405 15.6162 20.5192 16.463 20.7477 17.2516C20.9761 18.0403 21.3188 18.7271 21.7757 19.3122C22.2326 19.8973 22.8037 20.3589 23.4927 20.6969C24.178 21.0349 24.9702 21.2057 25.8618 21.2057C26.6724 21.2057 27.3577 21.1293 27.9215 20.9767C28.4852 20.8241 28.9494 20.6024 29.3253 20.3153C29.7011 20.0282 29.9958 19.6938 30.2132 19.3159C30.4306 18.9379 30.6038 18.5127 30.7291 18.0403H32.4755L32.4718 18.0366ZM30.8801 13.174C30.8801 12.3127 30.788 11.5241 30.6001 10.8045C30.4122 10.085 30.1211 9.46715 29.7269 8.94382C29.3326 8.42049 28.8131 8.01709 28.1683 7.72999C27.5235 7.44289 26.7535 7.29752 25.8581 7.29752C24.2996 7.29752 23.0505 7.78087 22.1146 8.74394C21.1788 9.70701 20.6187 11.1861 20.4308 13.174H30.8801Z"
      fill="white"
    />
    <path
      d="M46.7569 19.9446C46.488 20.2717 46.1637 20.5951 45.7916 20.915C45.4158 21.2348 44.992 21.5146 44.5131 21.7617C44.0341 22.0089 43.5109 22.2015 42.9361 22.3468C42.365 22.4886 41.7349 22.5613 41.0496 22.5613C39.3658 22.5613 38.0136 22.1615 36.9929 21.362C35.9723 20.5624 35.4639 19.374 35.4639 17.7932C35.4639 16.7283 35.6923 15.8561 36.1492 15.1765C36.6061 14.5006 37.214 13.9663 37.973 13.5775C38.732 13.1886 39.5942 12.916 40.5632 12.7634C41.5286 12.6108 42.5345 12.5126 43.5735 12.4727L46.6943 12.3491V11.8585C46.6943 10.2994 46.3885 9.1619 45.7732 8.44233C45.1578 7.72275 44.0635 7.3666 42.4829 7.3666C41.7128 7.3666 41.0643 7.42838 40.5338 7.55194C40.0032 7.67551 39.5611 7.85358 39.2073 8.08981C38.8536 8.32603 38.5736 8.60223 38.3636 8.92204C38.1573 9.24185 37.9988 9.59437 37.8957 9.98323L36.2413 9.73611C36.8235 7.15218 38.9236 5.8584 42.5418 5.8584C43.6656 5.8584 44.6125 5.99286 45.3789 6.25816C46.149 6.52346 46.768 6.90869 47.2359 7.41021C47.7039 7.91173 48.0428 8.52955 48.2492 9.25639C48.4555 9.98323 48.5623 10.8191 48.5623 11.764V22.1942H46.7532V19.9483L46.7569 19.9446ZM46.7275 13.7592L43.7651 13.8827C42.5603 13.9227 41.5507 14.0317 40.7401 14.2062C39.9295 14.3806 39.2737 14.6278 38.7763 14.9439C38.2788 15.2637 37.9178 15.6526 37.7004 16.1142C37.483 16.5757 37.3725 17.1245 37.3725 17.7605C37.3725 18.7235 37.6488 19.4976 38.1978 20.0827C38.7505 20.6678 39.7121 20.9586 41.0828 20.9586C41.7681 20.9586 42.4497 20.8822 43.1277 20.7296C43.8019 20.577 44.3583 20.3262 44.7968 19.9773C45.1726 19.712 45.4784 19.454 45.7179 19.2069C45.9574 18.9597 46.1564 18.6908 46.3111 18.3928C46.4659 18.0948 46.5764 17.7605 46.639 17.3934C46.7017 17.0263 46.7311 16.5939 46.7311 16.0996V13.7592H46.7275Z"
      fill="white"
    />
    <path d="M52.9985 0.22168H54.8076V22.1905H52.9985V0.22168Z" fill="white" />
  </g>
  <defs>
    <clipPath id="clip0_1783_504">
      <rect width="186.99" height="58.5436" fill="white" transform="translate(0.995117 0.22168)" />
    </clipPath>
  </defs>
</svg>
